<svg xmlns="http://www.w3.org/2000/svg" version="1.1" xmlns:xlink="http://www.w3.org/1999/xlink" xmlns:svgjs="http://svgjs.dev/svgjs" viewBox="150.32 403.75 698.51 192.02"><g transform="matrix(0.7,0,0,0.7,149.57575757575756,403.50950049580575)"><svg viewBox="0 0 396 109" preserveAspectRatio="xMidYMid meet" height="275" width="1000" xmlns="http://www.w3.org/2000/svg" xmlns:xlink="http://www.w3.org/1999/xlink"><g id="tight-bounds" transform="matrix(1,0,0,1,0.2400000000000091,0.1361789400372686)"><svg viewBox="0 0 395.52 108.72764211992546" height="108.72764211992546" width="395.52"><g><svg viewBox="0 0 397.4976 109.27128033052509" height="108.72764211992546" width="395.52"><g><rect width="397.4976" height="3.3468349949103358" x="0" y="60.05069204824066" fill="#4d331f" opacity="1" stroke-width="0" stroke="transparent" fill-opacity="1" class="rect-o-0" data-fill-palette-color="secondary" rx="1%" id="o-0" data-palette-color="#4d331f"></rect></g><g transform="matrix(1,0,0,1,0.9887999999999693,72.15887519736654)"><svg viewBox="0 0 395.52000000000004 37.112405133158546" height="37.112405133158546" width="395.52000000000004"><g id="textblocktransform"><svg viewBox="0 0 395.52000000000004 37.112405133158546" height="37.112405133158546" width="395.52000000000004" id="textblock"><g><svg viewBox="0 0 395.52000000000004 37.112405133158546" height="37.112405133158546" width="395.52000000000004"><g transform="matrix(1,0,0,1,0,0)"><svg width="395.52000000000004" viewBox="3.25 -33.5 362.3299865722656 34" height="37.112405133158546" data-palette-color="#883d1a"><path d="M17.05 0L3.25 0 3.25-0.8 7.25-2.8 7.25-30.2 3.25-32.2 3.25-33 15.9-33Q19.2-33 21.83-32.18 24.45-31.35 25.95-29.73 27.45-28.1 27.45-25.6L27.45-25.6Q27.45-23.05 25.75-20.93 24.05-18.8 20.85-17.9L20.85-17.9Q25.3-17.3 27.8-15.13 30.3-12.95 30.3-9.6L30.3-9.6Q30.3-6.85 28.58-4.67 26.85-2.5 23.85-1.25 20.85 0 17.05 0L17.05 0ZM14.75-30.25L14.75-30.25 11.75-30.25 11.75-18.4 15.05-18.4Q18.6-18.4 20.6-19.93 22.6-21.45 22.6-24.2L22.6-24.2Q22.6-30.25 14.75-30.25ZM16.65-15.65L16.65-15.65 11.75-15.65 11.75-2.75 17-2.75Q20.95-2.75 23.2-4.55 25.45-6.35 25.45-9.2L25.45-9.2Q25.45-12.6 23.18-14.13 20.9-15.65 16.65-15.65ZM53.15 0.5L53.15 0.5Q49.4 0.5 46.47-0.9 43.55-2.3 41.85-5.23 40.15-8.15 40.15-12.8L40.15-12.8 40.15-30.2 36.15-32.2 36.15-33 48.65-33 48.65-32.2 44.65-30.2 44.65-13.55Q44.65-9.4 45.95-6.95 47.25-4.5 49.47-3.45 51.7-2.4 54.45-2.4L54.45-2.4Q56.65-2.4 58.52-3.35 60.4-4.3 61.52-6.35 62.65-8.4 62.65-11.8L62.65-11.8 62.65-30.3 57.65-32.2 57.65-33 70.1-33 70.1-32.2 66.15-30.25 66.15-12.8Q66.15-8.15 64.45-5.23 62.75-2.3 59.82-0.9 56.9 0.5 53.15 0.5ZM90.89 0L76.59 0 76.59-0.8 80.59-2.8 80.59-30.2 76.59-32.2 76.59-33 91.25-33Q96.75-33 100.64-31.05 104.55-29.1 106.57-25.7 108.59-22.3 108.59-18L108.59-18Q108.59-14.1 107.27-10.8 105.94-7.5 103.55-5.1 101.14-2.7 97.92-1.35 94.69 0 90.89 0L90.89 0ZM90.09-30.25L90.09-30.25 85.09-30.25 85.09-2.75 90.84-2.75Q94.84-2.75 97.77-4.42 100.69-6.1 102.27-9.18 103.84-12.25 103.84-16.45L103.84-16.45Q103.84-20.6 102.25-23.73 100.64-26.85 97.57-28.55 94.5-30.25 90.09-30.25ZM132.24 0.5L132.24 0.5Q127.44 0.5 123.67-1.6 119.89-3.7 117.74-7.33 115.59-10.95 115.59-15.6L115.59-15.6Q115.59-19.45 116.97-22.7 118.34-25.95 120.82-28.38 123.29-30.8 126.49-32.15 129.69-33.5 133.39-33.5L133.39-33.5Q135.99-33.5 137.84-33.2 139.69-32.9 141.14-32.35 142.59-31.8 144.04-31.1L144.04-31.1 144.29-22.85 143.49-22.85 140.24-28.45Q138.14-29.9 136.67-30.45 135.19-31 133.29-31L133.29-31Q129.44-31 126.44-29.33 123.44-27.65 121.74-24.73 120.04-21.8 120.04-18.1L120.04-18.1Q120.04-13.1 121.87-9.6 123.69-6.1 126.79-4.25 129.89-2.4 133.69-2.4L133.69-2.4Q135.34-2.4 136.87-2.6 138.39-2.8 140.04-3.45L140.04-3.45 140.04-11.7 135.59-13.7 135.59-14.5 147.99-14.5 147.99-13.7 144.54-11.55 144.54-3.7Q142.24-1.8 138.87-0.65 135.49 0.5 132.24 0.5ZM179.59 0L153.74 0 153.74-0.8 157.74-2.8 157.74-30.2 153.74-32.2 153.74-33 178.19-33 178.19-24.4 177.39-24.4 174.29-30.25 162.24-30.25 162.24-18.4 170.74-18.4 173.24-22.55 174.04-22.55 174.04-11.6 173.24-11.6 170.74-15.65 162.24-15.65 162.24-2.75 175.69-2.75 178.79-9.1 179.59-9.1 179.59 0ZM207.19 0L192.69 0 192.69-0.8 197.69-2.8 197.69-30.25 189.54-30.25 186.14-22.9 185.34-22.9 185.34-33 214.54-33 214.54-22.9 213.74-22.9 210.34-30.25 202.19-30.25 202.19-2.8 207.19-0.8 207.19 0ZM233.84 0L220.04 0 220.04-0.8 224.04-2.8 224.04-30.2 220.04-32.2 220.04-33 232.69-33Q235.99-33 238.61-32.18 241.24-31.35 242.74-29.73 244.24-28.1 244.24-25.6L244.24-25.6Q244.24-23.05 242.54-20.93 240.84-18.8 237.64-17.9L237.64-17.9Q242.09-17.3 244.59-15.13 247.09-12.95 247.09-9.6L247.09-9.6Q247.09-6.85 245.36-4.67 243.64-2.5 240.64-1.25 237.64 0 233.84 0L233.84 0ZM231.54-30.25L231.54-30.25 228.54-30.25 228.54-18.4 231.84-18.4Q235.39-18.4 237.39-19.93 239.39-21.45 239.39-24.2L239.39-24.2Q239.39-30.25 231.54-30.25ZM233.44-15.65L233.44-15.65 228.54-15.65 228.54-2.75 233.79-2.75Q237.74-2.75 239.99-4.55 242.24-6.35 242.24-9.2L242.24-9.2Q242.24-12.6 239.96-14.13 237.69-15.65 233.44-15.65ZM269.83 0.5L269.83 0.5Q266.23 0.5 263.21-0.78 260.18-2.05 257.93-4.33 255.68-6.6 254.43-9.7 253.18-12.8 253.18-16.5L253.18-16.5Q253.18-20.2 254.43-23.3 255.68-26.4 257.93-28.68 260.18-30.95 263.21-32.23 266.23-33.5 269.83-33.5L269.83-33.5Q273.43-33.5 276.48-32.23 279.53-30.95 281.78-28.68 284.03-26.4 285.28-23.3 286.53-20.2 286.53-16.5L286.53-16.5Q286.53-12.8 285.28-9.7 284.03-6.6 281.78-4.33 279.53-2.05 276.48-0.78 273.43 0.5 269.83 0.5ZM270.88-2L270.88-2Q274.08-2 276.51-3.6 278.93-5.2 280.31-8.1 281.68-11 281.68-14.95L281.68-14.95Q281.68-19.8 279.98-23.43 278.28-27.05 275.41-29.05 272.53-31.05 268.98-31.05L268.98-31.05Q265.78-31.05 263.31-29.48 260.83-27.9 259.43-25 258.03-22.1 258.03-18.15L258.03-18.15Q258.03-13.3 259.76-9.65 261.48-6 264.38-4 267.28-2 270.88-2ZM310.18 0.5L310.18 0.5Q306.58 0.5 303.56-0.78 300.53-2.05 298.28-4.33 296.03-6.6 294.78-9.7 293.53-12.8 293.53-16.5L293.53-16.5Q293.53-20.2 294.78-23.3 296.03-26.4 298.28-28.68 300.53-30.95 303.56-32.23 306.58-33.5 310.18-33.5L310.18-33.5Q313.78-33.5 316.83-32.23 319.88-30.95 322.13-28.68 324.38-26.4 325.63-23.3 326.88-20.2 326.88-16.5L326.88-16.5Q326.88-12.8 325.63-9.7 324.38-6.6 322.13-4.33 319.88-2.05 316.83-0.78 313.78 0.5 310.18 0.5ZM311.23-2L311.23-2Q314.43-2 316.86-3.6 319.28-5.2 320.66-8.1 322.03-11 322.03-14.95L322.03-14.95Q322.03-19.8 320.33-23.43 318.63-27.05 315.76-29.05 312.88-31.05 309.33-31.05L309.33-31.05Q306.13-31.05 303.66-29.48 301.18-27.9 299.78-25 298.38-22.1 298.38-18.15L298.38-18.15Q298.38-13.3 300.11-9.65 301.83-6 304.73-4 307.63-2 311.23-2ZM346.13 0L333.63 0 333.63-0.8 337.63-2.8 337.63-30.2 333.63-32.2 333.63-33 346.13-33 346.13-32.2 342.13-30.2 342.13-2.8 346.13-0.8 346.13 0ZM358.38 0L342.18-16.9 356.03-30.5 352.48-32.2 352.48-33 362.98-33 362.98-32.2 359.88-31 346.73-18.1 362.53-2.1 365.58-0.8 365.58 0 358.38 0Z" opacity="1" transform="matrix(1,0,0,1,0,0)" fill="#883d1a" class="wordmark-text-0" data-fill-palette-color="primary" id="text-0"></path></svg></g></svg></g></svg></g></svg></g><g transform="matrix(1,0,0,1,165.10384326871068,0)"><svg viewBox="0 0 67.28991346257862 51.28934389402512" height="51.28934389402512" width="67.28991346257862"><g><svg xmlns="http://www.w3.org/2000/svg" xmlns:xlink="http://www.w3.org/1999/xlink" version="1.1" x="7.9999999999999964" y="0" viewBox="4.9670000076293945 5 90.0009994506836 90" enable-background="new 0 0 100 100" xml:space="preserve" height="51.28934389402512" width="51.28991346257863" class="icon-icon-0" data-fill-palette-color="accent" id="icon-0"><g fill="#4d331f" data-fill-palette-color="accent"><polygon points="81.588,69.219 76.042,77.733 49.901,5 30.566,58.797 24.486,43.546 4.967,95 17.555,95 45,95 64.794,95 82.249,95    94.968,95  " fill="#4d331f" data-fill-palette-color="accent"></polygon></g></svg></g></svg></g><g><rect width="88.57072326871068" height="3.3468349949103358" y="46.942508899114785" x="232.3937567312893" fill="#4d331f" data-fill-palette-color="secondary"></rect><rect width="88.57072326871068" height="3.3468349949103358" y="46.942508899114785" x="76.53312" fill="#4d331f" data-fill-palette-color="secondary"></rect></g></svg></g><defs></defs></svg><rect width="395.52" height="108.72764211992546" fill="none" stroke="none" visibility="hidden"></rect></g></svg></g></svg>